<svg width="18" height="20" viewBox="0 0 18 20" fill="none" xmlns="http://www.w3.org/2000/svg">
<path d="M8.99316 0C13.6557 0 17.4998 3.71769 17.5 8.31738C17.5 10.6352 16.657 12.7874 15.2695 14.6113C13.7389 16.6232 11.852 18.376 9.72852 19.752C9.24248 20.0699 8.80393 20.0939 8.27051 19.752C6.13487 18.376 4.24801 16.6232 2.73047 14.6113C1.34203 12.7874 0.5 10.6352 0.5 8.31738C0.500209 3.71778 4.34385 0.000149966 8.99316 0ZM8.99316 5.77637C7.4515 5.77652 6.19434 7.04829 6.19434 8.57715C6.19455 10.1178 7.45164 11.3299 8.99316 11.3301C10.5358 11.3301 11.8054 10.1179 11.8057 8.57715C11.8057 7.04819 10.536 5.77637 8.99316 5.77637Z" fill="#25A59E"/>
</svg>
